# xmcd
#
# Track frame offsets: 
#        150
#        20375
#        33461
#        51064
#        62746
#        83149
#        98927
#        115504
#        131077
#        152874
#
# Disc length: 2214 seconds
#
# Revision: 0
# Processed by: cddbd v1.5.1PL0 Copyright (c) Steve Scherf et al.
# Submitted via: ExactAudioCopy v0.95a5
#
DISCID=7b08a40a
DTITLE=Jessie and the Raindogs - Lil Ways Down the Road
DYEAR=2002
DGENRE=Blues
TTITLE0=Lil Ways Down the Road
TTITLE1=Don't Lie About Me
TTITLE2=Far Away
TTITLE3=Ain't Nothin' but the Blues
TTITLE4=Hold On (Call Waitin')
TTITLE5=Walkaway
TTITLE6=Face in a Magazine
TTITLE7=If I Wait for You
TTITLE8=Helluva Man
TTITLE9=Stringbean
EXTD=
EXTT0=
EXTT1=
EXTT2=
EXTT3=
EXTT4=
EXTT5=
EXTT6=
EXTT7=
EXTT8=
EXTT9=
PLAYORDER=
